<mxfile host="app.diagrams.net" modified="2024-06-07T08:46:10.361Z" agent="Mozilla/5.0 (Macintosh; Intel Mac OS X 10_15_7) AppleWebKit/605.1.15 (KHTML, like Gecko) Version/17.1 Safari/605.1.15" etag="evu4AM8SSPyGy0vgQPTG" version="24.4.13" type="github">
  <diagram name="Page-1" id="e7e014a7-5840-1c2e-5031-d8a46d1fe8dd">
    <mxGraphModel dx="1216" dy="1473" grid="1" gridSize="10" guides="1" tooltips="1" connect="1" arrows="1" fold="1" page="1" pageScale="1" pageWidth="1169" pageHeight="826" background="none" math="0" shadow="0">
      <root>
        <mxCell id="0" />
        <mxCell id="1" parent="0" />
        <mxCell id="yUmsPaic_kITUQohLjZ9-60" value="" style="html=1;whiteSpace=wrap;fillColor=#E6FFCC;" vertex="1" parent="1">
          <mxGeometry x="211" y="327" width="860" height="240" as="geometry" />
        </mxCell>
        <mxCell id="yUmsPaic_kITUQohLjZ9-61" value="core" style="html=1;whiteSpace=wrap;fillColor=#99FF99;" vertex="1" parent="1">
          <mxGeometry x="231" y="342" width="40" height="210" as="geometry" />
        </mxCell>
        <mxCell id="yUmsPaic_kITUQohLjZ9-62" value="" style="whiteSpace=wrap;html=1;fillColor=#99FF99;" vertex="1" parent="1">
          <mxGeometry x="291" y="343" width="370" height="210" as="geometry" />
        </mxCell>
        <mxCell id="yUmsPaic_kITUQohLjZ9-64" value="网络" style="whiteSpace=wrap;html=1;" vertex="1" parent="1">
          <mxGeometry x="301" y="362" width="100" height="40" as="geometry" />
        </mxCell>
        <mxCell id="yUmsPaic_kITUQohLjZ9-65" style="edgeStyle=orthogonalEdgeStyle;rounded=0;orthogonalLoop=1;jettySize=auto;html=1;exitX=0.5;exitY=1;exitDx=0;exitDy=0;" edge="1" parent="1" source="yUmsPaic_kITUQohLjZ9-64" target="yUmsPaic_kITUQohLjZ9-64">
          <mxGeometry relative="1" as="geometry" />
        </mxCell>
        <mxCell id="yUmsPaic_kITUQohLjZ9-66" style="edgeStyle=orthogonalEdgeStyle;rounded=0;orthogonalLoop=1;jettySize=auto;html=1;exitX=0.5;exitY=1;exitDx=0;exitDy=0;" edge="1" parent="1" source="yUmsPaic_kITUQohLjZ9-64" target="yUmsPaic_kITUQohLjZ9-64">
          <mxGeometry relative="1" as="geometry" />
        </mxCell>
        <mxCell id="yUmsPaic_kITUQohLjZ9-68" value="UIFactory" style="whiteSpace=wrap;html=1;" vertex="1" parent="1">
          <mxGeometry x="301" y="427" width="100" height="40" as="geometry" />
        </mxCell>
        <mxCell id="yUmsPaic_kITUQohLjZ9-69" value="源码" style="whiteSpace=wrap;html=1;" vertex="1" parent="1">
          <mxGeometry x="301" y="492" width="340" height="40" as="geometry" />
        </mxCell>
        <mxCell id="yUmsPaic_kITUQohLjZ9-73" value="screen" style="whiteSpace=wrap;html=1;" vertex="1" parent="1">
          <mxGeometry x="421" y="362" width="100" height="40" as="geometry" />
        </mxCell>
        <mxCell id="yUmsPaic_kITUQohLjZ9-74" value="videoKernel" style="whiteSpace=wrap;html=1;" vertex="1" parent="1">
          <mxGeometry x="541" y="362" width="100" height="40" as="geometry" />
        </mxCell>
        <mxCell id="yUmsPaic_kITUQohLjZ9-75" value="webKernel" style="whiteSpace=wrap;html=1;" vertex="1" parent="1">
          <mxGeometry x="421" y="427" width="100" height="40" as="geometry" />
        </mxCell>
        <mxCell id="yUmsPaic_kITUQohLjZ9-76" value="download" style="whiteSpace=wrap;html=1;" vertex="1" parent="1">
          <mxGeometry x="541" y="427" width="100" height="40" as="geometry" />
        </mxCell>
        <mxCell id="yUmsPaic_kITUQohLjZ9-77" value="" style="whiteSpace=wrap;html=1;fillColor=#66FFFF;" vertex="1" parent="1">
          <mxGeometry x="681" y="342" width="370" height="210" as="geometry" />
        </mxCell>
        <mxCell id="yUmsPaic_kITUQohLjZ9-78" value="大播放" style="whiteSpace=wrap;html=1;" vertex="1" parent="1">
          <mxGeometry x="691" y="362" width="100" height="40" as="geometry" />
        </mxCell>
        <mxCell id="yUmsPaic_kITUQohLjZ9-79" value="IM" style="whiteSpace=wrap;html=1;" vertex="1" parent="1">
          <mxGeometry x="691" y="427" width="100" height="40" as="geometry" />
        </mxCell>
        <mxCell id="yUmsPaic_kITUQohLjZ9-80" value="SDK" style="whiteSpace=wrap;html=1;" vertex="1" parent="1">
          <mxGeometry x="691" y="492" width="340" height="40" as="geometry" />
        </mxCell>
        <mxCell id="yUmsPaic_kITUQohLjZ9-81" value="登录" style="whiteSpace=wrap;html=1;" vertex="1" parent="1">
          <mxGeometry x="811" y="362" width="100" height="40" as="geometry" />
        </mxCell>
        <mxCell id="yUmsPaic_kITUQohLjZ9-82" value="分享" style="whiteSpace=wrap;html=1;" vertex="1" parent="1">
          <mxGeometry x="931" y="362" width="100" height="40" as="geometry" />
        </mxCell>
        <mxCell id="yUmsPaic_kITUQohLjZ9-83" value="动效" style="whiteSpace=wrap;html=1;" vertex="1" parent="1">
          <mxGeometry x="811" y="427" width="100" height="40" as="geometry" />
        </mxCell>
        <mxCell id="yUmsPaic_kITUQohLjZ9-84" value="投屏" style="whiteSpace=wrap;html=1;" vertex="1" parent="1">
          <mxGeometry x="931" y="427" width="100" height="40" as="geometry" />
        </mxCell>
        <mxCell id="yUmsPaic_kITUQohLjZ9-85" value="" style="html=1;whiteSpace=wrap;fillColor=#FFFF99;" vertex="1" parent="1">
          <mxGeometry x="211" y="130" width="860" height="169" as="geometry" />
        </mxCell>
        <mxCell id="yUmsPaic_kITUQohLjZ9-86" value="模块" style="html=1;whiteSpace=wrap;fillColor=#97D077;" vertex="1" parent="1">
          <mxGeometry x="231" y="150" width="40" height="134" as="geometry" />
        </mxCell>
        <mxCell id="yUmsPaic_kITUQohLjZ9-87" value="" style="whiteSpace=wrap;html=1;fillColor=#97D077;" vertex="1" parent="1">
          <mxGeometry x="286" y="150" width="764" height="134" as="geometry" />
        </mxCell>
        <mxCell id="yUmsPaic_kITUQohLjZ9-89" style="edgeStyle=orthogonalEdgeStyle;rounded=0;orthogonalLoop=1;jettySize=auto;html=1;exitX=0.5;exitY=1;exitDx=0;exitDy=0;" edge="1" parent="1">
          <mxGeometry relative="1" as="geometry">
            <mxPoint x="351" y="134" as="sourcePoint" />
            <mxPoint x="351" y="134" as="targetPoint" />
          </mxGeometry>
        </mxCell>
        <mxCell id="yUmsPaic_kITUQohLjZ9-90" style="edgeStyle=orthogonalEdgeStyle;rounded=0;orthogonalLoop=1;jettySize=auto;html=1;exitX=0.5;exitY=1;exitDx=0;exitDy=0;" edge="1" parent="1">
          <mxGeometry relative="1" as="geometry">
            <mxPoint x="351" y="134" as="sourcePoint" />
            <mxPoint x="351" y="134" as="targetPoint" />
          </mxGeometry>
        </mxCell>
        <mxCell id="yUmsPaic_kITUQohLjZ9-92" value="源码" style="whiteSpace=wrap;html=1;" vertex="1" parent="1">
          <mxGeometry x="301" y="224" width="729" height="40" as="geometry" />
        </mxCell>
        <mxCell id="yUmsPaic_kITUQohLjZ9-94" value="广告" style="whiteSpace=wrap;html=1;" vertex="1" parent="1">
          <mxGeometry x="535" y="170" width="100" height="40" as="geometry" />
        </mxCell>
        <mxCell id="yUmsPaic_kITUQohLjZ9-95" value="弹幕" style="whiteSpace=wrap;html=1;" vertex="1" parent="1">
          <mxGeometry x="301" y="170" width="100" height="40" as="geometry" />
        </mxCell>
        <mxCell id="yUmsPaic_kITUQohLjZ9-96" value="数据上报" style="whiteSpace=wrap;html=1;" vertex="1" parent="1">
          <mxGeometry x="420" y="170" width="100" height="40" as="geometry" />
        </mxCell>
        <mxCell id="yUmsPaic_kITUQohLjZ9-105" value="直播播放器" style="whiteSpace=wrap;html=1;" vertex="1" parent="1">
          <mxGeometry x="690" y="170" width="100" height="40" as="geometry" />
        </mxCell>
        <mxCell id="yUmsPaic_kITUQohLjZ9-106" value="聊天" style="whiteSpace=wrap;html=1;" vertex="1" parent="1">
          <mxGeometry x="810" y="170" width="100" height="40" as="geometry" />
        </mxCell>
        <mxCell id="yUmsPaic_kITUQohLjZ9-107" value="礼物" style="whiteSpace=wrap;html=1;" vertex="1" parent="1">
          <mxGeometry x="920" y="170" width="100" height="40" as="geometry" />
        </mxCell>
        <mxCell id="yUmsPaic_kITUQohLjZ9-109" value="" style="html=1;whiteSpace=wrap;fillColor=#FFFF33;shadow=1;" vertex="1" parent="1">
          <mxGeometry x="210" y="-63" width="860" height="169" as="geometry" />
        </mxCell>
        <mxCell id="yUmsPaic_kITUQohLjZ9-110" value="业务" style="html=1;whiteSpace=wrap;fillColor=#FFB366;" vertex="1" parent="1">
          <mxGeometry x="230" y="-43" width="40" height="134" as="geometry" />
        </mxCell>
        <mxCell id="yUmsPaic_kITUQohLjZ9-111" value="" style="whiteSpace=wrap;html=1;fillColor=#FFB366;" vertex="1" parent="1">
          <mxGeometry x="285" y="-43" width="764" height="134" as="geometry" />
        </mxCell>
        <mxCell id="yUmsPaic_kITUQohLjZ9-112" value="源码" style="whiteSpace=wrap;html=1;" vertex="1" parent="1">
          <mxGeometry x="300" y="31" width="729" height="40" as="geometry" />
        </mxCell>
        <mxCell id="yUmsPaic_kITUQohLjZ9-113" value="我的" style="whiteSpace=wrap;html=1;" vertex="1" parent="1">
          <mxGeometry x="534" y="-23" width="100" height="40" as="geometry" />
        </mxCell>
        <mxCell id="yUmsPaic_kITUQohLjZ9-114" value="频道" style="whiteSpace=wrap;html=1;" vertex="1" parent="1">
          <mxGeometry x="300" y="-23" width="100" height="40" as="geometry" />
        </mxCell>
        <mxCell id="yUmsPaic_kITUQohLjZ9-115" value="数据tab" style="whiteSpace=wrap;html=1;" vertex="1" parent="1">
          <mxGeometry x="419" y="-23" width="100" height="40" as="geometry" />
        </mxCell>
        <mxCell id="yUmsPaic_kITUQohLjZ9-116" value="直播间" style="whiteSpace=wrap;html=1;" vertex="1" parent="1">
          <mxGeometry x="689" y="-23" width="100" height="40" as="geometry" />
        </mxCell>
        <mxCell id="yUmsPaic_kITUQohLjZ9-117" value="点播" style="whiteSpace=wrap;html=1;" vertex="1" parent="1">
          <mxGeometry x="809" y="-23" width="100" height="40" as="geometry" />
        </mxCell>
        <mxCell id="yUmsPaic_kITUQohLjZ9-118" value="咨询" style="whiteSpace=wrap;html=1;" vertex="1" parent="1">
          <mxGeometry x="919" y="-23" width="100" height="40" as="geometry" />
        </mxCell>
        <mxCell id="yUmsPaic_kITUQohLjZ9-121" value="&lt;br&gt;&lt;div&gt;&lt;font style=&quot;font-size: 24px;&quot;&gt;体&lt;/font&gt;&lt;/div&gt;&lt;div&gt;&lt;font style=&quot;font-size: 24px;&quot;&gt;育&lt;/font&gt;&lt;/div&gt;&lt;div&gt;&lt;font style=&quot;font-size: 24px;&quot;&gt;移&lt;/font&gt;&lt;/div&gt;&lt;div&gt;&lt;font style=&quot;font-size: 24px;&quot;&gt;动&lt;/font&gt;&lt;/div&gt;&lt;div&gt;&lt;font style=&quot;font-size: 24px;&quot;&gt;端&lt;/font&gt;&lt;/div&gt;&lt;div&gt;&lt;font style=&quot;font-size: 24px;&quot;&gt;业&lt;/font&gt;&lt;/div&gt;&lt;div&gt;&lt;font style=&quot;font-size: 24px;&quot;&gt;务&lt;/font&gt;&lt;/div&gt;&lt;div&gt;&lt;font style=&quot;font-size: 24px;&quot;&gt;分&lt;/font&gt;&lt;/div&gt;&lt;div&gt;&lt;font style=&quot;font-size: 24px;&quot;&gt;层&lt;/font&gt;&lt;/div&gt;&lt;div&gt;&lt;font style=&quot;font-size: 24px;&quot;&gt;现&lt;/font&gt;&lt;/div&gt;&lt;div&gt;&lt;font style=&quot;font-size: 24px;&quot;&gt;状&lt;br&gt;&lt;/font&gt;&lt;div&gt;&lt;br&gt;&lt;/div&gt;&lt;/div&gt;" style="html=1;whiteSpace=wrap;fillColor=#66B2FF;" vertex="1" parent="1">
          <mxGeometry x="120" y="-63" width="70" height="633" as="geometry" />
        </mxCell>
      </root>
    </mxGraphModel>
  </diagram>
</mxfile>
